<svg width="35" height="35" viewBox="0 0 35 35" fill="none" xmlns="http://www.w3.org/2000/svg">
<path opacity="0.4" d="M24.2757 0.427277H29.9049C32.2362 0.427277 34.1252 2.3596 34.1252 4.74431V10.5025C34.1252 12.8872 32.2362 14.8195 29.9049 14.8195H24.2757C21.9444 14.8195 20.0554 12.8872 20.0554 10.5025V4.74431C20.0554 2.3596 21.9444 0.427277 24.2757 0.427277Z" fill="#F64B73"/>
<path fill-rule="evenodd" clip-rule="evenodd" d="M5.09542 0.427277H10.7246C13.0559 0.427277 14.9449 2.3596 14.9449 4.74431V10.5025C14.9449 12.8872 13.0559 14.8195 10.7246 14.8195H5.09542C2.76415 14.8195 0.875122 12.8872 0.875122 10.5025V4.74431C0.875122 2.3596 2.76415 0.427277 5.09542 0.427277ZM5.09547 19.7623H10.7246C13.0559 19.7623 14.9449 21.6946 14.9449 24.0793V29.8375C14.9449 32.2206 13.0559 34.1545 10.7246 34.1545H5.09547C2.7642 34.1545 0.875171 32.2206 0.875171 29.8375V24.0793C0.875171 21.6946 2.7642 19.7623 5.09547 19.7623ZM29.9049 19.7623H24.2757C21.9444 19.7623 20.0554 21.6946 20.0554 24.0793V29.8375C20.0554 32.2206 21.9444 34.1545 24.2757 34.1545H29.9049C32.2361 34.1545 34.1252 32.2206 34.1252 29.8375V24.0793C34.1252 21.6946 32.2361 19.7623 29.9049 19.7623Z" fill="#130F26"/>
</svg>
